<svg id="Layer_1" data-name="Layer 1" xmlns="http://www.w3.org/2000/svg" viewBox="0 0 1919 767"><defs><style>.cls-1,.cls-5{fill:#fff;}.cls-2{fill:#49a6d1;}.cls-3{fill:#2ac1d1;}.cls-4{fill:#49d4b3;}.cls-5{fill-opacity:0.2;}</style></defs><path class="cls-1" d="M1919,556,0,600.52V767H1919Z"/><path class="cls-2" d="M0,0H1917V621.14L0,717Z"/><path class="cls-3" d="M1919,0H1396.86L1115.09,661.15,1919,619.86Z"/><path class="cls-4" d="M1128.19,660.07,395,697.19,672.11,0h724.25Z"/><circle class="cls-5" cx="1165.53" cy="267.53" r="2.53"/><circle class="cls-5" cx="1190.86" cy="267.53" r="2.53"/><circle class="cls-5" cx="1216.18" cy="267.53" r="2.53"/><circle class="cls-5" cx="1241.51" cy="267.53" r="2.53"/><circle class="cls-5" cx="1266.84" cy="267.53" r="2.53"/><circle class="cls-5" cx="1292.16" cy="267.53" r="2.53"/><circle class="cls-5" cx="1317.49" cy="267.53" r="2.53"/><circle class="cls-5" cx="1342.82" cy="267.53" r="2.53"/><circle class="cls-5" cx="1368.14" cy="267.53" r="2.53"/><circle class="cls-5" cx="1393.47" cy="267.53" r="2.53"/><circle class="cls-5" cx="1165.53" cy="292.86" r="2.53"/><circle class="cls-5" cx="1190.86" cy="292.86" r="2.53"/><circle class="cls-5" cx="1216.18" cy="292.86" r="2.53"/><circle class="cls-5" cx="1241.51" cy="292.86" r="2.53"/><circle class="cls-5" cx="1266.84" cy="292.86" r="2.53"/><circle class="cls-5" cx="1292.16" cy="292.86" r="2.53"/><circle class="cls-5" cx="1317.49" cy="292.86" r="2.53"/><circle class="cls-5" cx="1342.82" cy="292.86" r="2.53"/><circle class="cls-5" cx="1368.14" cy="292.86" r="2.53"/><circle class="cls-5" cx="1393.47" cy="292.86" r="2.53"/><circle class="cls-5" cx="1165.53" cy="318.18" r="2.53"/><circle class="cls-5" cx="1190.86" cy="318.18" r="2.53"/><circle class="cls-5" cx="1216.18" cy="318.18" r="2.53"/><circle class="cls-5" cx="1241.51" cy="318.18" r="2.53"/><circle class="cls-5" cx="1266.84" cy="318.18" r="2.53"/><circle class="cls-5" cx="1292.16" cy="318.18" r="2.53"/><circle class="cls-5" cx="1317.49" cy="318.18" r="2.53"/><circle class="cls-5" cx="1342.82" cy="318.18" r="2.53"/><circle class="cls-5" cx="1368.14" cy="318.18" r="2.53"/><circle class="cls-5" cx="1393.47" cy="318.18" r="2.53"/><circle class="cls-5" cx="1165.53" cy="343.51" r="2.53"/><circle class="cls-5" cx="1190.86" cy="343.51" r="2.53"/><circle class="cls-5" cx="1216.18" cy="343.51" r="2.53"/><circle class="cls-5" cx="1241.51" cy="343.51" r="2.53"/><circle class="cls-5" cx="1266.84" cy="343.51" r="2.53"/><circle class="cls-5" cx="1292.16" cy="343.51" r="2.53"/><circle class="cls-5" cx="1317.49" cy="343.51" r="2.53"/><circle class="cls-5" cx="1342.82" cy="343.51" r="2.53"/><circle class="cls-5" cx="1368.14" cy="343.51" r="2.53"/><circle class="cls-5" cx="1393.47" cy="343.51" r="2.53"/><circle class="cls-5" cx="1165.53" cy="368.84" r="2.53"/><circle class="cls-5" cx="1190.86" cy="368.84" r="2.53"/><circle class="cls-5" cx="1216.18" cy="368.84" r="2.53"/><circle class="cls-5" cx="1241.51" cy="368.84" r="2.53"/><circle class="cls-5" cx="1266.84" cy="368.84" r="2.53"/><circle class="cls-5" cx="1292.16" cy="368.84" r="2.53"/><circle class="cls-5" cx="1317.49" cy="368.84" r="2.53"/><circle class="cls-5" cx="1342.82" cy="368.84" r="2.53"/><circle class="cls-5" cx="1368.14" cy="368.84" r="2.53"/><circle class="cls-5" cx="1393.47" cy="368.84" r="2.53"/><circle class="cls-5" cx="1165.53" cy="394.16" r="2.53"/><circle class="cls-5" cx="1190.86" cy="394.16" r="2.53"/><circle class="cls-5" cx="1216.18" cy="394.16" r="2.53"/><circle class="cls-5" cx="1241.51" cy="394.16" r="2.53"/><circle class="cls-5" cx="1266.84" cy="394.16" r="2.53"/><circle class="cls-5" cx="1292.16" cy="394.16" r="2.53"/><circle class="cls-5" cx="1317.49" cy="394.16" r="2.53"/><circle class="cls-5" cx="1342.82" cy="394.16" r="2.53"/><circle class="cls-5" cx="1368.14" cy="394.16" r="2.53"/><circle class="cls-5" cx="1393.47" cy="394.16" r="2.53"/><circle class="cls-5" cx="1165.53" cy="419.49" r="2.53"/><circle class="cls-5" cx="1190.86" cy="419.49" r="2.53"/><circle class="cls-5" cx="1216.18" cy="419.49" r="2.53"/><circle class="cls-5" cx="1241.51" cy="419.49" r="2.53"/><circle class="cls-5" cx="1266.84" cy="419.49" r="2.53"/><circle class="cls-5" cx="1292.16" cy="419.49" r="2.53"/><circle class="cls-5" cx="1317.49" cy="419.49" r="2.53"/><circle class="cls-5" cx="1342.82" cy="419.49" r="2.53"/><circle class="cls-5" cx="1368.14" cy="419.49" r="2.53"/><circle class="cls-5" cx="1393.47" cy="419.49" r="2.53"/><circle class="cls-5" cx="1165.53" cy="444.82" r="2.53"/><circle class="cls-5" cx="1190.86" cy="444.82" r="2.53"/><circle class="cls-5" cx="1216.18" cy="444.82" r="2.53"/><circle class="cls-5" cx="1241.51" cy="444.82" r="2.53"/><circle class="cls-5" cx="1266.84" cy="444.82" r="2.53"/><circle class="cls-5" cx="1292.16" cy="444.82" r="2.53"/><circle class="cls-5" cx="1317.49" cy="444.82" r="2.53"/><circle class="cls-5" cx="1342.82" cy="444.82" r="2.53"/><circle class="cls-5" cx="1368.14" cy="444.82" r="2.53"/><circle class="cls-5" cx="1393.47" cy="444.82" r="2.53"/><circle class="cls-5" cx="1165.53" cy="470.14" r="2.53"/><circle class="cls-5" cx="1190.86" cy="470.14" r="2.53"/><circle class="cls-5" cx="1216.18" cy="470.14" r="2.53"/><circle class="cls-5" cx="1241.51" cy="470.14" r="2.53"/><circle class="cls-5" cx="1266.84" cy="470.14" r="2.53"/><circle class="cls-5" cx="1292.16" cy="470.14" r="2.53"/><circle class="cls-5" cx="1317.49" cy="470.14" r="2.53"/><circle class="cls-5" cx="1342.82" cy="470.14" r="2.53"/><circle class="cls-5" cx="1368.14" cy="470.14" r="2.53"/><circle class="cls-5" cx="1393.47" cy="470.14" r="2.53"/><circle class="cls-5" cx="1165.53" cy="495.47" r="2.53"/><circle class="cls-5" cx="1190.86" cy="495.47" r="2.53"/><circle class="cls-5" cx="1216.18" cy="495.47" r="2.53"/><circle class="cls-5" cx="1241.51" cy="495.47" r="2.53"/><circle class="cls-5" cx="1266.84" cy="495.47" r="2.53"/><circle class="cls-5" cx="1292.16" cy="495.47" r="2.53"/><circle class="cls-5" cx="1317.49" cy="495.47" r="2.53"/><circle class="cls-5" cx="1342.82" cy="495.47" r="2.53"/><circle class="cls-5" cx="1368.14" cy="495.47" r="2.53"/><circle class="cls-5" cx="1393.47" cy="495.47" r="2.53"/></svg>